# xmcd
# 
# Track frame offsets:
#	150
#	12357
#	31897
#	59533
#	80118
#	94125
#	107927
#	126238
#	149583
#	168178
#
# Disc length: 2593 seconds
#
# Revision: 2
# Processed by: cddbd v1.5.1PL0 Copyright (c) Steve Scherf et al.
# Submitted via: Audio-CD-Archiv 3.00.487
#
DISCID=8b0a1f0a
DTITLE=Joy Division - Komackino
DYEAR=1900
DGENRE=blues
TTITLE0=Wilderness (Live In London 29.02.80)
TTITLE1=Twenty Four Hours (Live In London 29.02.80)
TTITLE2=The Eternal (Live In London 29.02.80)
TTITLE3=Heart And Soul (Live In London 29.02.80)
TTITLE4=Love Will Tear Us Apart (Live In London 29.02.80)
TTITLE5=Isolation (Live In London 29.02.80)
TTITLE6=Komakino (Live In London 29.02.80)
TTITLE7=She's Lost Control (Live In London 29.02.80)
TTITLE8=These Days (Live In London 29.02.80)
TTITLE9=Atrocity Exhibition (Live In London 29.02.80)
EXTD=
EXTT0=
EXTT1=
EXTT2=
EXTT3=
EXTT4=
EXTT5=
EXTT6=
EXTT7=
EXTT8=
EXTT9=
PLAYORDER=
